HIERARCHY
ROOT hip
{
  OFFSET 0 0 0
  CHANNELS 6 Xposition Yposition Zposition Zrotation Yrotation Xrotation
  JOINT abdomen
  {
    OFFSET 0 20.6881 -0.73152
    CHANNELS 3 Zrotation Xrotation Yrotation
    JOINT chest
    {
      OFFSET 0 11.7043 -0.48768
      CHANNELS 3 Zrotation Xrotation Yrotation
      JOINT neck
      {
        OFFSET 0 22.1894 -2.19456
        CHANNELS 3 Zrotation Xrotation Yrotation
        JOINT head
        {
          OFFSET -0.24384 7.07133 1.2192
          CHANNELS 3 Zrotation Xrotation Yrotation
          JOINT leftEye
          {
            OFFSET 4.14528 8.04674 8.04672
            CHANNELS 3 Zrotation Xrotation Yrotation
            End Site
            {
              OFFSET 1 0 0
            }
          }
          JOINT rightEye
          {
            OFFSET -3.6576 8.04674 8.04672
            CHANNELS 3 Zrotation Xrotation Yrotation
            End Site
            {
              OFFSET 1 0 0
            }
          }
        }
      }
      JOINT rCollar
      {
        OFFSET -2.68224 19.2634 -4.8768
        CHANNELS 3 Zrotation Xrotation Yrotation
        JOINT rShldr
        {
          OFFSET -8.77824 -1.95073 1.46304
          CHANNELS 3 Zrotation Xrotation Yrotation
          JOINT rForeArm
          {
            OFFSET -28.1742 -1.7115 0.48768
            CHANNELS 3 Zrotation Xrotation Yrotation
            JOINT rHand
            {
              OFFSET -22.5879 0.773209 7.07136
              CHANNELS 3 Zrotation Xrotation Yrotation
              JOINT rThumb1
              {
                OFFSET -1.2192 -0.487915 3.41376
                CHANNELS 3 Zrotation Xrotation Yrotation
                JOINT rThumb2
                {
                  OFFSET -3.37035 -0.52449 3.41376
                  CHANNELS 3 Zrotation Xrotation Yrotation
                  End Site
                  {
                    OFFSET -1.78271 -1.18214 1.43049
                  }
                }
              }
              JOINT rIndex1
              {
                OFFSET -7.75947 0.938293 5.60832
                CHANNELS 3 Zrotation Xrotation Yrotation
                JOINT rIndex2
                {
                  OFFSET -2.54057 -0.884171 1.56538
                  CHANNELS 3 Zrotation Xrotation Yrotation
                  End Site
                  {
                    OFFSET -1.62519 -0.234802 1.16502
                  }
                }
              }
              JOINT rMid1
              {
                OFFSET -8.24714 1.18213 3.41376
                CHANNELS 3 Zrotation Xrotation Yrotation
                JOINT rMid2
                {
                  OFFSET -3.10165 -0.590103 1.0647
                  CHANNELS 3 Zrotation Xrotation Yrotation
                  End Site
                  {
                    OFFSET -2.48547 -0.328903 0.83742
                  }
                }
              }
              JOINT rRing1
              {
                OFFSET -8.82822 0.546677 1.51678
                CHANNELS 3 Zrotation Xrotation Yrotation
                JOINT rRing2
                {
                  OFFSET -2.60934 -0.819778 -0.0198488
                  CHANNELS 3 Zrotation Xrotation Yrotation
                  End Site
                  {
                    OFFSET -2.33842 -0.294052 0.168128
                  }
                }
              }
              JOINT rPinky1
              {
                OFFSET -8.27202 -0.0477905 -0.4584
                CHANNELS 3 Zrotation Xrotation Yrotation
                JOINT rPinky2
                {
                  OFFSET -1.82734 -0.647385 -0.700984
                  CHANNELS 3 Zrotation Xrotation Yrotation
                  End Site
                  {
                    OFFSET -1.69225 -0.51767 -0.607171
                  }
                }
              }
            }
          }
        }
      }
      JOINT lCollar
      {
        OFFSET 2.68224 19.2634 -4.8768
        CHANNELS 3 Zrotation Xrotation Yrotation
        JOINT lShldr
        {
          OFFSET 8.77824 -1.95073 1.46304
          CHANNELS 3 Zrotation Xrotation Yrotation
          JOINT lForeArm
          {
            OFFSET 28.1742 -1.7115 0.48768
            CHANNELS 3 Zrotation Xrotation Yrotation
            JOINT lHand
            {
              OFFSET 22.5879 0.773209 7.07136
              CHANNELS 3 Zrotation Xrotation Yrotation
              JOINT lThumb1
              {
                OFFSET 1.2192 -0.487915 3.41376
                CHANNELS 3 Zrotation Xrotation Yrotation
                JOINT lThumb2
                {
                  OFFSET 3.37035 -0.52449 3.41376
                  CHANNELS 3 Zrotation Xrotation Yrotation
                  End Site
                  {
                    OFFSET 1.78271 -1.18214 1.43049
                  }
                }
              }
              JOINT lIndex1
              {
                OFFSET 7.75947 0.938293 5.60832
                CHANNELS 3 Zrotation Xrotation Yrotation
                JOINT lIndex2
                {
                  OFFSET 2.54057 -0.884171 1.56538
                  CHANNELS 3 Zrotation Xrotation Yrotation
                  End Site
                  {
                    OFFSET 1.62519 -0.234802 1.16502
                  }
                }
              }
              JOINT lMid1
              {
                OFFSET 8.24714 1.18213 3.41376
                CHANNELS 3 Zrotation Xrotation Yrotation
                JOINT lMid2
                {
                  OFFSET 3.10165 -0.590103 1.0647
                  CHANNELS 3 Zrotation Xrotation Yrotation
                  End Site
                  {
                    OFFSET 2.48547 -0.328903 0.83742
                  }
                }
              }
              JOINT lRing1
              {
                OFFSET 8.82822 0.546677 1.51678
                CHANNELS 3 Zrotation Xrotation Yrotation
                JOINT lRing2
                {
                  OFFSET 2.60934 -0.819778 -0.0198488
                  CHANNELS 3 Zrotation Xrotation Yrotation
                  End Site
                  {
                    OFFSET 2.33842 -0.294052 0.168128
                  }
                }
              }
              JOINT lPinky1
              {
                OFFSET 8.27202 -0.0477905 -0.4584
                CHANNELS 3 Zrotation Xrotation Yrotation
                JOINT lPinky2
                {
                  OFFSET 1.82734 -0.647385 -0.700984
                  CHANNELS 3 Zrotation Xrotation Yrotation
                  End Site
                  {
                    OFFSET 1.69225 -0.51767 -0.607171
                  }
                }
              }
            }
          }
        }
      }
    }
  }
  JOINT rButtock
  {
    OFFSET -8.77824 4.35084 1.2192
    CHANNELS 3 Zrotation Xrotation Yrotation
    JOINT rThigh
    {
      OFFSET 0 -1.70687 -2.19456
      CHANNELS 3 Zrotation Xrotation Yrotation
      JOINT rShin
      {
        OFFSET 0 -36.8199 0.73152
        CHANNELS 3 Zrotation Xrotation Yrotation
        JOINT rFoot
        {
          OFFSET 0.73152 -45.1104 -5.12064
          CHANNELS 3 Zrotation Xrotation Yrotation
          End Site
          {
            OFFSET -1.1221 -3.69964 12.103
          }
        }
      }
    }
  }
  JOINT lButtock
  {
    OFFSET 8.77824 4.35084 1.2192
    CHANNELS 3 Zrotation Xrotation Yrotation
    JOINT lThigh
    {
      OFFSET 0 -1.70687 -2.19456
      CHANNELS 3 Zrotation Xrotation Yrotation
      JOINT lShin
      {
        OFFSET 0 -36.8199 0.73152
        CHANNELS 3 Zrotation Xrotation Yrotation
        JOINT lFoot
        {
          OFFSET -0.73152 -45.1104 -5.12064
          CHANNELS 3 Zrotation Xrotation Yrotation
          End Site
          {
            OFFSET 1.1221 -3.69964 12.103
          }
        }
      }
    }
  }
}
MOTION
Frames:	7
Frame Time:	0.00833333
-11.0751 56.6872 142.283 0.2243 -51.9903 -2.9478 -7.80968 14.125 17.7173 -4.20385 -11.5813 4.25059 -1.5186 9.68714 8.34278 4.81416 -15.9334 17.2386 -0.0 0.0 0.0 -0.0 0.0 0.0 -7.88096e-14 5.15853e-14 2.03482e-14 -2.81107 70.9022 78.0877 -26.5483 -44.9784 93.6376 -5.10979 -53.206 -10.3767 2.80452e-09 -1.51652e-09 1.32155e-09 4.78092e-09 -2.81552e-09 2.37307e-09 2.80452e-09 -1.5165e-09 1.32152e-09 7.73091 5.47488 0.417314 2.80451e-09 -1.51652e-09 1.32155e-09 2.90554 0.965183 0.102902 2.80452e-09 -1.51652e-09 1.32155e-09 10.2786 0.731801 0.0259123 2.80451e-09 -1.51652e-09 1.32156e-09 2.22167 -0.733487 -0.20892 -7.88015e-14 5.15781e-14 2.01665e-14 -55.0429 13.3243 -37.58 27.8372 -41.3692 -86.2568 0.126504 7.38876 -1.06332 8.22957e-10 -5.79495e-10 -6.03677e-10 1.41392e-09 -9.87117e-10 -1.05145e-09 8.22958e-10 -5.79492e-10 -6.03666e-10 -7.73091 5.47488 -0.417314 8.22958e-10 -5.79491e-10 -6.03671e-10 -2.90554 0.965183 -0.102902 8.22956e-10 -5.79493e-10 -6.03675e-10 -10.2786 0.731801 -0.0259123 8.22964e-10 -5.79493e-10 -6.03683e-10 -2.22167 -0.733487 0.20892 -2.03217e-16 0.0 -3.88251e-19 -19.0038 -34.4175 -24.1131 -3.70163 78.5885 5.25182 -10.4998 -27.424 -21.0088 2.03217e-16 0.0 3.88251e-19 44.2091 -42.2298 39.1256 0.512597 45.6564 -0.0114219 -3.65219 26.1596 7.92921
-11.0733 56.3349 143.317 0.6448 -53.2085 -3.5285 -7.59088 14.0787 18.1526 -4.55164 -11.4374 4.32953 -1.49422 9.81397 8.64275 4.57417 -15.8796 17.7787 -0.0 0.0 0.0 -0.0 0.0 0.0 -7.48352e-14 1.44893e-13 -2.39492e-13 7.09159 72.7105 67.261 -26.3871 -45.3498 94.3897 -12.0211 -67.3405 -18.4304 2.38721e-09 -6.47766e-09 1.54652e-09 4.02342e-09 -1.11154e-08 2.73744e-09 2.38721e-09 -6.47765e-09 1.5465e-09 7.73091 5.47488 0.417314 2.38721e-09 -6.47765e-09 1.54652e-09 2.90554 0.965183 0.102902 2.38722e-09 -6.47765e-09 1.54652e-09 10.2786 0.731801 0.0259123 2.38721e-09 -6.47766e-09 1.54652e-09 2.22167 -0.733487 -0.20892 -7.48545e-14 1.44885e-13 -2.39716e-13 -57.9613 11.5472 -35.9756 28.0897 -40.2468 -84.1287 0.102042 5.72245 -0.825461 7.06274e-10 -1.15025e-09 5.0234e-10 1.21468e-09 -1.97087e-09 8.62981e-10 7.06275e-10 -1.15025e-09 5.02353e-10 -7.73091 5.47488 -0.417314 7.06276e-10 -1.15024e-09 5.02345e-10 -2.90554 0.965183 -0.102902 7.06273e-10 -1.15025e-09 5.02342e-10 -10.2786 0.731801 -0.0259123 7.06282e-10 -1.15025e-09 5.02335e-10 -2.22167 -0.733487 0.20892 -2.03217e-16 0.0 -3.88251e-19 -19.9782 -34.3094 -23.7114 -3.98571 79.3639 5.63353 -10.5542 -27.6851 -20.9686 2.03217e-16 0.0 3.88251e-19 44.4869 -41.2146 39.9862 0.540947 46.7407 -0.125103 -2.73376 24.5543 5.96938
-11.0705 55.9384 144.292 1.0381 -54.1369 -4.0749 -7.3503 14.0916 18.4029 -4.8319 -11.3378 4.36341 -1.49485 9.97356 8.92556 4.39245 -15.9139 18.2997 -0.0 0.0 0.0 -0.0 0.0 0.0 -6.44033e-14 2.31157e-13 -5.02013e-13 17.0735 73.6769 56.3623 -26.321 -45.5766 94.7305 -33.7954 -78.4444 -41.2019 1.84644e-09 -1.15695e-08 1.72502e-09 3.05236e-09 -1.95971e-08 3.01442e-09 1.84645e-09 -1.15695e-08 1.72501e-09 7.73091 5.47488 0.417314 1.84644e-09 -1.15695e-08 1.72502e-09 2.90554 0.965183 0.102902 1.84645e-09 -1.15695e-08 1.72502e-09 10.2786 0.731801 0.0259123 1.84644e-09 -1.15695e-08 1.72503e-09 2.22167 -0.733487 -0.20892 -6.44561e-14 2.31147e-13 -5.02278e-13 -60.1692 9.944 -34.7269 28.2509 -39.1002 -82.1609 0.0644165 5.2072 -0.742188 5.07853e-10 -1.67852e-09 1.67312e-09 8.75145e-10 -2.88454e-09 2.89039e-09 5.07853e-10 -1.67852e-09 1.67314e-09 -7.73091 5.47488 -0.417314 5.07855e-10 -1.67852e-09 1.67312e-09 -2.90554 0.965183 -0.102902 5.07851e-10 -1.67852e-09 1.67312e-09 -10.2786 0.731801 -0.0259123 5.07861e-10 -1.67852e-09 1.67312e-09 -2.22167 -0.733487 0.20892 -2.03217e-16 0.0 -3.88251e-19 -20.8983 -34.2329 -23.3772 -4.32962 80.1728 6.08581 -10.6818 -27.9055 -21.0759 2.03217e-16 0.0 3.88251e-19 44.7931 -40.431 40.9321 0.583717 48.0276 -0.24536 -1.88043 22.7023 3.97824
-11.0689 55.5198 145.2 1.3754 -54.7887 -4.5672 -7.16582 14.1685 18.4669 -4.98735 -11.2969 4.35549 -1.49195 10.1221 9.14666 4.36018 -16.0493 18.7289 -0.0 0.0 0.0 -0.0 0.0 0.0 -4.59008e-14 2.72339e-13 -6.71047e-13 24.366 74.1796 48.2195 -26.2901 -45.6893 94.8906 -79.2911 -81.991 -87.2645 1.36977e-09 -1.53984e-08 1.95128e-09 2.20103e-09 -2.59172e-08 3.37503e-09 1.36977e-09 -1.53984e-08 1.95128e-09 7.73091 5.47488 0.417314 1.36977e-09 -1.53984e-08 1.95128e-09 2.90554 0.965183 0.102902 1.36978e-09 -1.53984e-08 1.95128e-09 10.2786 0.731801 0.0259123 1.36977e-09 -1.53984e-08 1.95129e-09 2.22167 -0.733487 -0.20892 -4.59904e-14 2.7233e-13 -6.71346e-13 -61.6197 8.70105 -33.6056 28.3227 -38.1091 -80.5956 0.0396215 5.67207 -0.799798 2.73183e-10 -1.95809e-09 2.6071e-09 4.75501e-10 -3.37583e-09 4.50797e-09 2.73182e-10 -1.95809e-09 2.60712e-09 -7.73091 5.47488 -0.417314 2.73186e-10 -1.95809e-09 2.6071e-09 -2.90554 0.965183 -0.102902 2.73181e-10 -1.95809e-09 2.6071e-09 -10.2786 0.731801 -0.0259123 2.73192e-10 -1.95809e-09 2.6071e-09 -2.22167 -0.733487 0.20892 -2.03217e-16 0.0 -3.88251e-19 -21.7313 -34.139 -23.2308 -4.71698 80.9654 6.58724 -10.9364 -28.0738 -21.43 2.03217e-16 0.0 3.88251e-19 45.1242 -39.9115 41.7857 0.632703 49.3214 -0.351173 -1.31821 20.9329 2.54967
-11.0711 55.1024 146.036 1.6088 -55.197 -4.9692 -7.06941 14.3434 18.2615 -4.97727 -11.3363 4.28435 -1.47416 10.2438 9.30059 4.52121 -16.2961 19.063 -0.0 0.0 0.0 -0.0 0.0 0.0 -1.18363e-14 2.42578e-13 -6.9247e-13 27.1152 74.7526 44.7895 -26.3231 -45.6198 94.7452 -92.809 -81.663 -100.856 9.69281e-10 -1.73555e-08 2.23658e-09 1.49513e-09 -2.90271e-08 3.83853e-09 9.69284e-10 -1.73555e-08 2.23658e-09 7.73091 5.47488 0.417314 9.6928e-10 -1.73555e-08 2.23658e-09 2.90554 0.965183 0.102902 9.69291e-10 -1.73555e-08 2.23658e-09 10.2786 0.731801 0.0259123 9.6928e-10 -1.73555e-08 2.23659e-09 2.22167 -0.733487 -0.20892 -1.19755e-14 2.42574e-13 -6.92791e-13 -62.1594 7.94614 -32.5249 28.3582 -37.3752 -79.4253 0.0474145 7.64259 -1.07614 1.70702e-11 -1.91522e-09 3.18827e-09 4.21832e-11 -3.31973e-09 5.51414e-09 1.70682e-11 -1.91522e-09 3.18828e-09 -7.73091 5.47488 -0.417314 1.70733e-11 -1.91522e-09 3.18827e-09 -2.90554 0.965183 -0.102902 1.70673e-11 -1.91522e-09 3.18827e-09 -10.2786 0.731801 -0.0259123 1.7079e-11 -1.91522e-09 3.18826e-09 -2.22167 -0.733487 0.20892 -2.03217e-16 0.0 -3.88251e-19 -22.4708 -34.0142 -23.3218 -5.16532 81.7641 7.16073 -11.3816 -28.1837 -22.1405 2.03217e-16 0.0 3.88251e-19 45.4782 -39.7267 42.5315 0.686273 50.6293 -0.433153 -1.03529 19.2527 1.85784
-11.0797 54.6952 146.82 1.6833 -55.4111 -5.232 -7.01269 14.6033 17.8146 -4.8409 -11.4423 4.15564 -1.45737 10.3637 9.40889 4.8229 -16.6449 19.3367 -0.0 0.0 0.0 -0.0 0.0 0.0 3.45762e-14 1.674e-13 -6.27063e-13 26.1533 75.5167 45.2605 -26.4386 -45.3782 94.2309 -74.8288 -81.7904 -82.7055 5.57597e-10 -1.82631e-08 2.53528e-09 7.77983e-10 -3.03178e-08 4.3225e-09 5.57599e-10 -1.82631e-08 2.53528e-09 7.73091 5.47488 0.417314 5.57597e-10 -1.82631e-08 2.53528e-09 2.90554 0.965183 0.102902 5.57606e-10 -1.82631e-08 2.53528e-09 10.2786 0.731801 0.0259123 5.57595e-10 -1.82631e-08 2.53529e-09 2.22167 -0.733487 -0.20892 3.43764e-14 1.67402e-13 -6.27402e-13 -61.9193 7.59551 -31.5799 28.3915 -36.8208 -78.4649 0.111196 11.0183 -1.5603 -2.85638e-10 -1.66615e-09 3.58932e-09 -4.69256e-10 -2.91449e-09 6.20844e-09 -2.85642e-10 -1.66614e-09 3.58933e-09 -7.73091 5.47488 -0.417314 -2.85635e-10 -1.66614e-09 3.58932e-09 -2.90554 0.965183 -0.102902 -2.85642e-10 -1.66614e-09 3.58932e-09 -10.2786 0.731801 -0.0259123 -2.8563e-10 -1.66614e-09 3.58932e-09 -2.22167 -0.733487 0.20892 -2.03217e-16 0.0 -3.88251e-19 -23.1314 -33.8854 -23.5791 -5.7221 82.5833 7.85433 -11.975 -28.2354 -23.1268 2.03217e-16 0.0 3.88251e-19 45.8814 -39.8313 43.2656 0.747943 52.036 -0.503558 -0.873756 17.5305 1.55443
-11.09 54.3261 147.524 1.5578 -55.4894 -5.309 -6.95408 14.8825 17.2909 -4.64095 -11.5768 4.0132 -1.45312 10.4991 9.46727 5.21007 -17.0807 19.5345 -0.0 0.0 0.0 -0.0 0.0 0.0 7.88913e-14 8.58485e-14 -5.51023e-13 23.2113 76.3052 47.8312 -26.5586 -45.1089 93.6766 -48.7878 -80.3742 -56.3997 1.73031e-10 -1.88745e-08 2.85624e-09 1.0923e-10 -3.11055e-08 4.84543e-09 1.73032e-10 -1.88746e-08 2.85624e-09 7.73091 5.47488 0.417314 1.73031e-10 -1.88746e-08 2.85625e-09 2.90554 0.965183 0.102902 1.73037e-10 -1.88745e-08 2.85624e-09 10.2786 0.731801 0.0259123 1.73026e-10 -1.88745e-08 2.85626e-09 2.22167 -0.733487 -0.20892 7.86402e-14 8.58565e-14 -5.51371e-13 -61.2557 7.49799 -30.8213 28.4204 -36.3759 -77.6546 0.245608 14.6894 -2.1057 -6.49391e-10 -1.28958e-09 3.94177e-09 -1.08497e-09 -2.29271e-09 6.8198e-09 -6.49397e-10 -1.28958e-09 3.94178e-09 -7.73091 5.47488 -0.417314 -6.49388e-10 -1.28958e-09 3.94177e-09 -2.90554 0.965183 -0.102902 -6.49396e-10 -1.28958e-09 3.94176e-09 -10.2786 0.731801 -0.0259123 -6.49383e-10 -1.28958e-09 3.94176e-09 -2.22167 -0.733487 0.20892 -2.03217e-16 0.0 -3.88251e-19 -23.7121 -33.7645 -23.9418 -6.38552 83.3613 8.6539 -12.6094 -28.2289 -24.202 2.03217e-16 0.0 3.88251e-19 46.3737 -40.0904 43.9828 0.813641 53.4618 -0.571092 -0.766162 15.9051 1.41994
